<?xml version="1.0" encoding="utf-8"?>
<!-- Generator: Adobe Illustrator 27.7.0, SVG Export Plug-In . SVG Version: 6.00 Build 0)  -->
<svg version="1.1" id="Layer_1" xmlns="http://www.w3.org/2000/svg" xmlns:xlink="http://www.w3.org/1999/xlink" x="0px" y="0px"
	 viewBox="0 0 720 720" style="enable-background:new 0 0 720 720;" xml:space="preserve">
<style type="text/css">
	.st0{fill:none;stroke:#C2B59B;stroke-width:50;stroke-linecap:round;stroke-miterlimit:133.33333;}
	.st1{fill:none;stroke:#C2B59B;stroke-width:50;stroke-miterlimit:133.33333;}
</style>
<path class="st0" d="M395.15439,45.87948l219.30484,126.61578c21.7536,12.55943,35.1543,35.7702,35.1543,60.88905
	l-0.00006,253.23149c0,25.11884-13.40076,48.32962-35.1543,60.88901L395.15424,674.12054
	c-21.75357,12.55939-48.55505,12.55939-70.30862,0L105.54076,547.5047c-21.75356-12.55939-35.1543-35.77017-35.1543-60.88904
	l0.00006-253.23146c0.00001-25.11885,13.40076-48.32962,35.15432-60.88904L324.84576,45.87947
	C346.59933,33.32005,373.40082,33.32005,395.15439,45.87948z"/>
<path class="st1" d="M467.41705,326.19269c24.9549,14.73605,24.9549,52.87872,0,67.61478l-150.68719,88.96552
	c-24.25543,14.32104-54.06308-4.31931-54.06308-33.8074V271.03329c0-29.48778,29.80765-48.12686,54.06308-33.80643
	L467.41705,326.19269z"/>
</svg>
